# xmcd
# 
# Track frame offsets:
#     150
#     19406
#     29518
#     43187
#     61049
#     72593
#     86943
#     103595
#     120897
#     136208
#     155643
#     160502
# 
# Disc length: 2317
# 
# Revision: 0
# Processed by: cddbd v1.5.2PL0 Copyright (c) Steve Scherf et al.
# Submitted via: fre:ac v1.0.31
# 
DISCID=9e090b0c
DTITLE=The Hanging Stars - Songs For Somewhere Else
DYEAR=2018
DGENRE=Country Rock
TTITLE0=On a Sweet Summers Day
TTITLE1=Too Many Wired Hours
TTITLE2=How I Got This Way
TTITLE3=Mean Old Man
TTITLE4=Pick Up the Pieces
TTITLE5=Djupsjön
TTITLE6=Honeywater
TTITLE7=For You (My Blue Eyed Son)
TTITLE8=Hold Out Your Hand
TTITLE9=Dig a Hole
TTITLE10=How I Got This Way (reprise)
TTITLE11=Water Song
EXTD=
EXTT0=
EXTT1=
EXTT2=
EXTT3=
EXTT4=
EXTT5=
EXTT6=
EXTT7=
EXTT8=
EXTT9=
EXTT10=
EXTT11=
PLAYORDER=
